inDegrees=no
num_controls=7
num_derivatives=13
num_iterations=136
num_multipliers=7
num_parameters=0
num_slacks=7
num_states=26
objective=5.733958
objective_accelerations=0.674844
objective_balance=0.113719
objective_effort=0.483957
objective_height=4.399908
objective_ligament=0.061530
solver_duration=1612.694509
status=Solve_Succeeded
success=true
DataType=double
version=3
OpenSimVersion=4.4-2022-07-23-0e9fedc
endheader
time	/jointset/ground_pelvis/pelvis_tilt/value	/jointset/ground_pelvis/pelvis_tx/value	/jointset/ground_pelvis/pelvis_ty/value	/jointset/hip_l/hip_flexion_l/value	/jointset/hip_l/hip_adduction_l/value	/jointset/hip_l/hip_rotation_l/value	/jointset/back/lumbar_extension/value	/jointset/patellofemoral_l/patellar_flexion_l/value	/jointset/knee_l/knee_flexion_l/value	/jointset/knee_l/knee_adduction_l/value	/jointset/knee_l/knee_rotation_l/value	/jointset/ankle_l/ankle_angle_l/value	/jointset/subtalar_l/subtalar_angle_l/value	/jointset/ground_pelvis/pelvis_tilt/speed	/jointset/ground_pelvis/pelvis_tx/speed	/jointset/ground_pelvis/pelvis_ty/speed	/jointset/hip_l/hip_flexion_l/speed	/jointset/hip_l/hip_adduction_l/speed	/jointset/hip_l/hip_rotation_l/speed	/jointset/back/lumbar_extension/speed	/jointset/patellofemoral_l/patellar_flexion_l/speed	/jointset/knee_l/knee_flexion_l/speed	/jointset/knee_l/knee_adduction_l/speed	/jointset/knee_l/knee_rotation_l/speed	/jointset/ankle_l/ankle_angle_l/speed	/jointset/subtalar_l/subtalar_angle_l/speed	/forceset/tau_hip_flexion_l	/forceset/tau_hip_adduction_l	/forceset/tau_hip_rotation_l	/forceset/tau_knee_flexion_l	/forceset/tau_ankle_angle_l	/forceset/tau_subtalar_angle_l	/forceset/tau_lumbar_extension	lambda_cid13_p0	lambda_cid13_p1	lambda_cid13_p2	lambda_cid13_p3	lambda_cid13_p4	lambda_cid13_p5	lambda_cid14_p0	/jointset/ground_pelvis/pelvis_tilt/accel	/jointset/ground_pelvis/pelvis_tx/accel	/jointset/ground_pelvis/pelvis_ty/accel	/jointset/hip_l/hip_flexion_l/accel	/jointset/hip_l/hip_adduction_l/accel	/jointset/hip_l/hip_rotation_l/accel	/jointset/back/lumbar_extension/accel	/jointset/patellofemoral_l/patellar_flexion_l/accel	/jointset/knee_l/knee_flexion_l/accel	/jointset/knee_l/knee_adduction_l/accel	/jointset/knee_l/knee_rotation_l/accel	/jointset/ankle_l/ankle_angle_l/accel	/jointset/subtalar_l/subtalar_angle_l/accel	gamma_cid13_p0	gamma_cid13_p1	gamma_cid13_p2	gamma_cid13_p3	gamma_cid13_p4	gamma_cid13_p5	gamma_cid14_p0
0	-0.1601427436075679	0.05856547461582287	0.8979979211953207	0.3774920279260975	-0.2591491251121137	-0.2727644934280944	-0.0126506700172305	0.03223623128430583	0.03223623128433527	-0.1745329071819756	0.1743308496237575	-0.04231376238535053	-0.009275940676767127	0	0	0	0	0	0	0	0	0	0	0	0	0	0.165262620217119	-0.07765252520487011	-0.0542441402870827	-0.3223980374905287	0.3282742777096436	-0.05664974074380517	-0.1065643810029892	62.62335775378298	7.217237881939828	5.781108956548564	-5.46171225044402	-588.6596844505017	-65.43455962754197	-39.06771719659206	-4.972129924366816	-2.319827447726818	-1.19252613442845	13.37353173104969	-1.26439804392206	3.075279815428319	-5.968079465623173	8.937126174401135	8.937126174399348	0.03884921703948198	0.01438618952077848	0.5974290524734864	-1.156120886694983	-5.482168738045053e-08	1.040591995622398e-07	1.176484963840394e-07	2.107801467265328e-08	7.044434638573415e-09	-3.394816482490808e-08	-1.768106495852192e-08
0.01	-0.1603829786588787	0.0584497787820932	0.8979395425028028	0.3781454882558243	-0.2592119651357084	-0.2726119565747301	-0.01295036651569789	0.03267294325454397	0.03267294325439732	-0.174532807328851	0.1743293679449219	-0.04228761148770203	-0.00933421136114619	-0.04773826253842752	-0.02314859455344079	-0.01163744225459745	0.130157783968653	-0.01247755705618239	0.03029825790100353	-0.0595364199632012	0.08695803865895928	0.08695803865896223	6.633054252616543e-05	-0.0002320234658562715	0.005069059288989252	-0.01160073635442613	0.1537414944870466	-0.08535250414060519	-0.05144897958362005	-0.3046703230377191	0.2999814975340074	-0.03850665898995435	-0.09809869498788734	54.18568228263274	1.045253378297109	6.502169144709971	0.08954176163254032	-589.3172943095304	-76.50275077021364	-39.08013682722871	-4.628371295848984	-2.313785412712508	-1.143607425173462	12.75675024779942	-1.225897395233387	2.975717538783355	-5.885991302526406	8.517492943017894	8.517492943019775	-0.002489347924457676	-0.032362131932072	0.4374720240399521	-1.154069223341431	-5.798952490033501e-08	1.110138950359422e-07	1.226426106860827e-07	2.292434603362169e-08	-7.449377540849961e-08	6.786578776551664e-09	-2.007404178624174e-08
0.02	-0.1610913357110274	0.05810231501211911	0.8977659385568979	0.3800844961288346	-0.2593968733016175	-0.2721627133900645	-0.01383334082197495	0.03396770565738781	0.03396770565738637	-0.1745306470287167	0.1743274929282962	-0.04221560446577639	-0.009506893251774987	-0.09362440016751238	-0.0463535872488872	-0.02304505067742819	0.2571095086584521	-0.02441362846305877	0.05934126625585074	-0.1166555615607564	0.1716100865728721	0.1716100865728853	0.0004120882536445385	-7.866762347428033e-05	0.009171224855093757	-0.02288224124988404	0.1422203687566305	-0.0930524830763753	-0.04865381887842935	-0.2869426085855793	0.2716887173581693	-0.02036357723620529	-0.08963300897287843	45.82642333553218	-5.139540980506305	7.224224297436368	5.544579228946566	-588.74900866182	-87.46878802526297	-39.11698683936122	-4.601704942499081	-2.33110707612724	-1.146559368075265	12.73231987527836	-1.15610091406296	2.824229906197061	-5.484623792494137	8.475928025391683	8.475928025391356	0.09473465075372228	0.09146205116858754	0.404050307896707	-1.092274594903357	-6.115736242021949e-08	1.179685905096446e-07	1.27636724988126e-07	2.47706773945901e-08	-1.560319854555726e-07	4.75213223780114e-08	-2.246701861396157e-08
0.03	-0.1622505487758331	0.05752414348519189	0.8974792100348956	0.3832765944941233	-0.2596984925893601	-0.2714282236457065	-0.01527495344470135	0.03609774171503936	0.03609774171512161	-0.1745238725287217	0.1743281949502123	-0.04210523023504317	-0.009790367526285489	-0.1379940792668457	-0.06912521407682104	-0.03427572604132468	0.3806720926724055	-0.03583759002800918	0.0874574780099391	-0.1712594262877018	0.2540174229931954	0.2540174229932016	0.0009384268630849811	0.0001878108147391988	0.01295295627935812	-0.03372992021918276	0.1367911853688609	-0.08756322757465645	-0.04803895385627952	-0.2832451192677332	0.2699506806451242	-0.0233967356617656	-0.08496049121751532	45.21052589118418	-3.822480533914541	7.137700181975426	4.781696783844098	-588.5875047110558	-83.96071585724721	-39.17721134995072	-4.320987355170403	-2.226859914605667	-1.107614004106751	12.07250581307827	-1.124664473873637	2.790418019126554	-5.387137308833919	8.066185657097973	8.066185657097055	0.03095354381350015	-0.01046519565209879	0.3726319080273891	-1.068643096064841	-8.457632760196416e-08	1.408255933065666e-07	1.568740598643852e-07	4.454136377393325e-08	-2.667438302049536e-07	5.042654204960464e-08	-2.714590352330245e-08
